<svg width="0" height="0" class="hidden">
  <symbol fill="none" xmlns="http://www.w3.org/2000/svg" viewBox="0 0 24 24" id="card">
    <g id="SVGRepo_bgCarrier" stroke-width="0"></g>
    <g id="SVGRepo_tracerCarrier" stroke-linecap="round" stroke-linejoin="round"></g>
    <g id="SVGRepo_iconCarrier">
      <path d="M2 8.5H15.24" stroke="#292D32" stroke-width="1.5" stroke-miterlimit="10" stroke-linecap="round" stroke-linejoin="round"></path>
      <path d="M6 16.5H7.29" stroke="#292D32" stroke-width="1.5" stroke-miterlimit="10" stroke-linecap="round" stroke-linejoin="round"></path>
      <path d="M11 16.5H14.5" stroke="#292D32" stroke-width="1.5" stroke-miterlimit="10" stroke-linecap="round" stroke-linejoin="round"></path>
      <path d="M7.97998 20.4999H17.56C21.12 20.4999 22 19.6199 22 16.1099V6.88989" stroke="#292D32" stroke-width="1.5" stroke-linecap="round" stroke-linejoin="round"></path>
      <path d="M19.99 3.75C19.37 3.57 18.57 3.5 17.56 3.5H6.44C2.89 3.5 2 4.38 2 7.89V16.1C2 18.44 2.39 19.61 3.71 20.13" stroke="#292D32" stroke-width="1.5" stroke-linecap="round" stroke-linejoin="round"></path>
      <path d="M22 2L2 22" stroke="#292D32" stroke-width="1.5" stroke-linecap="round" stroke-linejoin="round"></path>
    </g>
  </symbol>
  <symbol xmlns="http://www.w3.org/2000/svg" viewBox="0 -45.19 512 512" id="download">
    <g id="SVGRepo_bgCarrier" stroke-width="0"></g>
    <g id="SVGRepo_tracerCarrier" stroke-linecap="round" stroke-linejoin="round"></g>
    <g id="SVGRepo_iconCarrier">
      <defs></defs>
      <g id="Layer_2">
        <g id="E427_Cloud_data_download_multimedia_server">
          <line x1="256" x2="256" y1="197.5" y2="411.63"></line>
          <polyline points="298.78 358.15 256 411.63 213.22 358.15"></polyline>
          <path d="M448.47,181.08A140.6,140.6,0,0,0,185.65,87.35,90.42,90.42,0,0,0,60.2,170.65a91.37,91.37,0,0,0,.65,10.78A60.25,60.25,0,0,0,10,240.94h0a60.24,60.24,0,0,0,60.24,60.24H441.76A60.24,60.24,0,0,0,502,240.94h0A60.24,60.24,0,0,0,448.47,181.08Z"></path>
        </g>
      </g>
    </g>
  </symbol>
  <symbol version="1.1" xmlns="http://www.w3.org/2000/svg" xmlns:xlink="http://www.w3.org/1999/xlink" viewBox="-5 0 20 20" id="facebook">
    <g id="SVGRepo_bgCarrier" stroke-width="0"></g>
    <g id="SVGRepo_tracerCarrier" stroke-linecap="round" stroke-linejoin="round"></g>
    <g id="SVGRepo_iconCarrier">
      <title>facebook [#176]</title>
      <desc>Created with Sketch.</desc>
      <defs></defs>
      <g id="Page-1" stroke="none" stroke-width="1">
        <g id="Dribbble-Light-Preview" transform="translate(-385.000000, -7399.000000)">
          <g id="icons" transform="translate(56.000000, 160.000000)">
            <path d="M335.821282,7259 L335.821282,7250 L338.553693,7250 L339,7246 L335.821282,7246 L335.821282,7244.052 C335.821282,7243.022 335.847593,7242 337.286884,7242 L338.744689,7242 L338.744689,7239.14 C338.744689,7239.097 337.492497,7239 336.225687,7239 C333.580004,7239 331.923407,7240.657 331.923407,7243.7 L331.923407,7246 L329,7246 L329,7250 L331.923407,7250 L331.923407,7259 L335.821282,7259 Z" id="facebook-[#176]"></path>
          </g>
        </g>
      </g>
    </g>
  </symbol>
  <symbol xmlns="http://www.w3.org/2000/svg" viewBox="0 0 32 32" id="instagram">
    <g id="SVGRepo_bgCarrier" stroke-width="0"></g>
    <g id="SVGRepo_tracerCarrier" stroke-linecap="round" stroke-linejoin="round"></g>
    <g id="SVGRepo_iconCarrier">
      <path d="M20.445 5h-8.891A6.559 6.559 0 0 0 5 11.554v8.891A6.559 6.559 0 0 0 11.554 27h8.891a6.56 6.56 0 0 0 6.554-6.555v-8.891A6.557 6.557 0 0 0 20.445 5zm4.342 15.445a4.343 4.343 0 0 1-4.342 4.342h-8.891a4.341 4.341 0 0 1-4.341-4.342v-8.891a4.34 4.34 0 0 1 4.341-4.341h8.891a4.342 4.342 0 0 1 4.341 4.341l.001 8.891z"></path>
      <path d="M16 10.312c-3.138 0-5.688 2.551-5.688 5.688s2.551 5.688 5.688 5.688 5.688-2.551 5.688-5.688-2.55-5.688-5.688-5.688zm0 9.163a3.475 3.475 0 1 1-.001-6.95 3.475 3.475 0 0 1 .001 6.95zM21.7 8.991a1.363 1.363 0 1 1-1.364 1.364c0-.752.51-1.364 1.364-1.364z"></path>
    </g>
  </symbol>
  <symbol version="1.1" xmlns="http://www.w3.org/2000/svg" xmlns:xlink="http://www.w3.org/1999/xlink" xml:space="preserve" viewBox="0 0 512 512" id="linkedin">
    <g id="SVGRepo_bgCarrier" stroke-width="0"></g>
    <g id="SVGRepo_tracerCarrier" stroke-linecap="round" stroke-linejoin="round"></g>
    <g id="SVGRepo_iconCarrier">
      <g id="7935ec95c421cee6d86eb22ecd125aef">
        <path d="M116.504,500.219V170.654H6.975v329.564H116.504 L116.504,500.219z M61.751,125.674c38.183,0,61.968-25.328,61.968-56.953c-0.722-32.328-23.785-56.941-61.252-56.941 C24.994,11.781,0.5,36.394,0.5,68.722c0,31.625,23.772,56.953,60.53,56.953H61.751L61.751,125.674z M177.124,500.219 c0,0,1.437-298.643,0-329.564H286.67v47.794h-0.727c14.404-22.49,40.354-55.533,99.44-55.533 c72.085,0,126.116,47.103,126.116,148.333v188.971H401.971V323.912c0-44.301-15.848-74.531-55.497-74.531 c-30.254,0-48.284,20.38-56.202,40.08c-2.897,7.012-3.602,16.861-3.602,26.711v184.047H177.124L177.124,500.219z"></path>
      </g>
    </g>
  </symbol>
  <symbol version="1.1" id="play" xmlns="http://www.w3.org/2000/svg" xmlns:xlink="http://www.w3.org/1999/xlink" xml:space="preserve" viewBox="0 0 512.00 512.00">
    <g id="SVGRepo_bgCarrier" stroke-width="0">
      <rect x="0" y="0" width="512.00" height="512.00" rx="256" strokewidth="0"></rect>
    </g>
    <g id="SVGRepo_tracerCarrier" stroke-linecap="round" stroke-linejoin="round"></g>
    <g id="SVGRepo_iconCarrier">
      <g>
        <path d="M256,0C114.625,0,0,114.625,0,256c0,141.374,114.625,256,256,256c141.374,0,256-114.626,256-256 C512,114.625,397.374,0,256,0z M351.062,258.898l-144,85.945c-1.031,0.626-2.344,0.657-3.406,0.031 c-1.031-0.594-1.687-1.702-1.687-2.937v-85.946v-85.946c0-1.218,0.656-2.343,1.687-2.938c1.062-0.609,2.375-0.578,3.406,0.031 l144,85.962c1.031,0.586,1.641,1.718,1.641,2.89C352.703,257.187,352.094,258.297,351.062,258.898z"></path>
      </g>
    </g>
  </symbol>
</svg>